<svg width="22" height="17" viewBox="0 0 22 17" fill="none" xmlns="http://www.w3.org/2000/svg">
<g clip-path="url(#clip0)">
<path d="M11.6207 10.71C11.4143 10.8557 11.1714 10.9286 10.9286 10.9286C10.6857 10.9286 10.4429 10.8557 10.2364 10.71L0 3.54572V15.7857C0 16.4536 0.546429 17 1.21429 17H20.6429C21.3107 17 21.8571 16.4536 21.8571 15.7857V3.54572L11.6207 10.71Z" fill="white"/>
<path d="M10.9286 8.23286L20.9586 1.21429L21.7236 0.68C21.5171 0.279286 21.1164 0 20.6429 0H1.21429C0.740718 0 0.340004 0.279286 0.133575 0.68L0.898575 1.21429L10.9286 8.23286Z" fill="white"/>
</g>
<defs>
<clipPath id="clip0">
<rect width="21.8571" height="17" fill="white"/>
</clipPath>
</defs>
</svg>
